<?xml version="1.0" encoding="UTF-8"?>
<svg version="1.1" xmlns="http://www.w3.org/2000/svg" width="512" height="512">
<path d="M0 0 C1.13008258 -0.00445784 2.26016515 -0.00891569 3.42449266 -0.01350862 C5.2718839 -0.01323207 5.2718839 -0.01323207 7.15659618 -0.01294994 C9.13090053 -0.01846498 9.13090053 -0.01846498 11.14508981 -0.02409142 C14.79282473 -0.03407993 18.4405432 -0.03782314 22.08828986 -0.04048073 C26.02515871 -0.04439327 29.96201465 -0.05397107 33.89887524 -0.0626936 C43.40488016 -0.0824333 52.9108861 -0.09252197 62.41690639 -0.10142139 C66.89908831 -0.10580919 71.38126906 -0.1111748 75.86345005 -0.11641026 C90.77370267 -0.13342157 105.68395456 -0.14791353 120.59421539 -0.155159 C124.46137843 -0.15706874 128.32854145 -0.15898909 132.19570446 -0.16094494 C133.15681136 -0.16142868 134.11791826 -0.16191242 135.10814961 -0.16241082 C150.66124965 -0.17070286 166.21427257 -0.19602623 181.76733897 -0.22852562 C197.75389798 -0.26165698 213.74041788 -0.27961332 229.72701138 -0.28280324 C238.69528053 -0.28496293 247.66343729 -0.29363188 256.63167286 -0.31926441 C264.27306575 -0.34105476 271.91431894 -0.34898117 279.55573938 -0.33929763 C283.44853361 -0.33477665 287.34104012 -0.33650915 291.23379421 -0.35605907 C326.64103175 -0.52398311 355.81382244 7.7461523 381.93667126 32.38422108 C398.61231115 49.89518987 412.33797157 75.18226682 412.38339233 99.88504982 C412.38785018 101.0151324 412.39230802 102.14521497 412.39690095 103.30954248 C412.39662441 105.15693372 412.39662441 105.15693372 412.39634228 107.041646 C412.40001897 108.3578489 412.40369565 109.67405179 412.40748376 111.03013963 C412.41747226 114.67787455 412.42121547 118.32559302 412.42387307 121.97333968 C412.42778561 125.91020853 412.4373634 129.84706447 412.44608593 133.78392506 C412.46582563 143.28992998 412.4759143 152.79593592 412.48481372 162.30195621 C412.48920152 166.78413813 412.49456713 171.26631888 412.49980259 175.74849987 C412.5168139 190.65875249 412.53130586 205.56900438 412.53855133 220.47926521 C412.54046107 224.34642825 412.54238143 228.21359127 412.54433727 232.08075428 C412.54482101 233.04186118 412.54530475 234.00296808 412.54580315 234.99319943 C412.55409519 250.54629947 412.57941857 266.09932239 412.61191795 281.65238879 C412.64504931 297.6389478 412.66300565 313.6254677 412.66619557 329.6120612 C412.66835527 338.58033035 412.67702421 347.54848711 412.70265675 356.51672268 C412.72444709 364.15811557 412.73237351 371.79936876 412.72268996 379.4407892 C412.71816898 383.33358343 412.71990149 387.22608994 412.73945141 391.11884403 C412.90737545 426.52608157 404.63724003 455.69887226 379.99917126 481.82172108 C362.48820246 498.49736097 337.20112552 512.22302139 312.49834251 512.26844215 C311.36825994 512.2729 310.23817736 512.27735784 309.07384986 512.28195077 C307.22645861 512.28167423 307.22645861 512.28167423 305.34174633 512.2813921 C304.02554344 512.28506879 302.70934054 512.28874547 301.35325271 512.29253358 C297.70551778 512.30252208 294.05779931 512.30626529 290.41005266 512.30892289 C286.4731838 512.31283543 282.53632786 512.32241322 278.59946728 512.33113575 C269.09346236 512.35087545 259.58745641 512.36096412 250.08143613 512.36986354 C245.59925421 512.37425134 241.11707346 512.37961695 236.63489246 512.38485241 C221.72463985 512.40186372 206.81438795 512.41635568 191.90412712 512.42360115 C188.03696409 512.42551089 184.16980106 512.42743125 180.30263805 512.42938709 C179.34153115 512.42987083 178.38042425 512.43035457 177.3901929 512.43085297 C161.83709287 512.43914501 146.28406994 512.46446839 130.73100355 512.49696777 C114.74444454 512.53009913 98.75792463 512.54805547 82.77133113 512.55124539 C73.80306198 512.55340509 64.83490522 512.56207403 55.86666965 512.58770657 C48.22527676 512.60949691 40.58402357 512.61742333 32.94260313 512.60773978 C29.04980891 512.6032188 25.15730239 512.60495131 21.2645483 512.62450123 C-14.14268924 512.79242527 -43.31547993 504.52228985 -69.43832874 479.88422108 C-83.42898914 465.24343706 -92.85597665 447.740008 -97.75082874 428.13422108 C-98.01145491 427.09519369 -98.01145491 427.09519369 -98.27734625 426.03517586 C-99.88164847 418.90872078 -100.03674647 412.02957963 -100.01825428 404.74577808 C-100.02278539 403.42615749 -100.02731651 402.1065369 -100.03198493 400.7469278 C-100.0441473 397.10820628 -100.04396249 393.46957717 -100.04159617 389.83083999 C-100.04118628 385.89676096 -100.05224371 381.96271088 -100.06171131 378.02864552 C-100.07828597 370.32934444 -100.08381929 362.63007399 -100.08493607 354.93075656 C-100.08588838 348.66731107 -100.09000782 342.40387562 -100.09633732 336.14043331 C-100.1139414 318.35626676 -100.12317769 300.57212429 -100.12167637 282.78794896 C-100.12159646 281.83028272 -100.12151655 280.87261649 -100.12143421 279.88593006 C-100.12135245 278.92708517 -100.12127069 277.96824027 -100.12118645 276.98033947 C-100.12037417 261.45335502 -100.13949951 245.92646771 -100.16771095 230.39951133 C-100.19649426 214.43090052 -100.21024819 198.462337 -100.20852339 182.49369961 C-100.20786129 173.53891079 -100.2132743 164.58422378 -100.23487949 155.62945843 C-100.25316331 148.00279387 -100.25738002 140.37627724 -100.24386065 132.74960016 C-100.23736661 128.86488488 -100.23708307 124.9804528 -100.25456715 121.09576511 C-100.40382528 85.71339545 -92.12045914 56.55002035 -67.50082874 30.44672108 C-49.92039331 13.64694441 -24.81884383 0.04563416 0 0 Z " fill="#111110" transform="translate(99.75082874298096,-0.13422107696533203)"/>
<path d="M0 0 C1.13008258 -0.00445784 2.26016515 -0.00891569 3.42449266 -0.01350862 C5.2718839 -0.01323207 5.2718839 -0.01323207 7.15659618 -0.01294994 C9.13090053 -0.01846498 9.13090053 -0.01846498 11.14508981 -0.02409142 C14.79282473 -0.03407993 18.4405432 -0.03782314 22.08828986 -0.04048073 C26.02515871 -0.04439327 29.96201465 -0.05397107 33.89887524 -0.0626936 C43.40488016 -0.0824333 52.9108861 -0.09252197 62.41690639 -0.10142139 C66.89908831 -0.10580919 71.38126906 -0.1111748 75.86345005 -0.11641026 C90.77370267 -0.13342157 105.68395456 -0.14791353 120.59421539 -0.155159 C124.46137843 -0.15706874 128.32854145 -0.15898909 132.19570446 -0.16094494 C133.15681136 -0.16142868 134.11791826 -0.16191242 135.10814961 -0.16241082 C150.66124965 -0.17070286 166.21427257 -0.19602623 181.76733897 -0.22852562 C197.75389798 -0.26165698 213.74041788 -0.27961332 229.72701138 -0.28280324 C238.69528053 -0.28496293 247.66343729 -0.29363188 256.63167286 -0.31926441 C264.27306575 -0.34105476 271.91431894 -0.34898117 279.55573938 -0.33929763 C283.44853361 -0.33477665 287.34104012 -0.33650915 291.23379421 -0.35605907 C326.64103175 -0.52398311 355.81382244 7.7461523 381.93667126 32.38422108 C398.61231115 49.89518987 412.33797157 75.18226682 412.38339233 99.88504982 C412.38785018 101.0151324 412.39230802 102.14521497 412.39690095 103.30954248 C412.39662441 105.15693372 412.39662441 105.15693372 412.39634228 107.041646 C412.40001897 108.3578489 412.40369565 109.67405179 412.40748376 111.03013963 C412.41747226 114.67787455 412.42121547 118.32559302 412.42387307 121.97333968 C412.42778561 125.91020853 412.4373634 129.84706447 412.44608593 133.78392506 C412.46582563 143.28992998 412.4759143 152.79593592 412.48481372 162.30195621 C412.48920152 166.78413813 412.49456713 171.26631888 412.49980259 175.74849987 C412.5168139 190.65875249 412.53130586 205.56900438 412.53855133 220.47926521 C412.54046107 224.34642825 412.54238143 228.21359127 412.54433727 232.08075428 C412.54482101 233.04186118 412.54530475 234.00296808 412.54580315 234.99319943 C412.55409519 250.54629947 412.57941857 266.09932239 412.61191795 281.65238879 C412.64504931 297.6389478 412.66300565 313.6254677 412.66619557 329.6120612 C412.66835527 338.58033035 412.67702421 347.54848711 412.70265675 356.51672268 C412.72444709 364.15811557 412.73237351 371.79936876 412.72268996 379.4407892 C412.71816898 383.33358343 412.71990149 387.22608994 412.73945141 391.11884403 C412.90737545 426.52608157 404.63724003 455.69887226 379.99917126 481.82172108 C362.48820246 498.49736097 337.20112552 512.22302139 312.49834251 512.26844215 C311.36825994 512.2729 310.23817736 512.27735784 309.07384986 512.28195077 C307.22645861 512.28167423 307.22645861 512.28167423 305.34174633 512.2813921 C304.02554344 512.28506879 302.70934054 512.28874547 301.35325271 512.29253358 C297.70551778 512.30252208 294.05779931 512.30626529 290.41005266 512.30892289 C286.4731838 512.31283543 282.53632786 512.32241322 278.59946728 512.33113575 C269.09346236 512.35087545 259.58745641 512.36096412 250.08143613 512.36986354 C245.59925421 512.37425134 241.11707346 512.37961695 236.63489246 512.38485241 C221.72463985 512.40186372 206.81438795 512.41635568 191.90412712 512.42360115 C188.03696409 512.42551089 184.16980106 512.42743125 180.30263805 512.42938709 C179.34153115 512.42987083 178.38042425 512.43035457 177.3901929 512.43085297 C161.83709287 512.43914501 146.28406994 512.46446839 130.73100355 512.49696777 C114.74444454 512.53009913 98.75792463 512.54805547 82.77133113 512.55124539 C73.80306198 512.55340509 64.83490522 512.56207403 55.86666965 512.58770657 C48.22527676 512.60949691 40.58402357 512.61742333 32.94260313 512.60773978 C29.04980891 512.6032188 25.15730239 512.60495131 21.2645483 512.62450123 C-14.14268924 512.79242527 -43.31547993 504.52228985 -69.43832874 479.88422108 C-83.42898914 465.24343706 -92.85597665 447.740008 -97.75082874 428.13422108 C-98.01145491 427.09519369 -98.01145491 427.09519369 -98.27734625 426.03517586 C-99.88164847 418.90872078 -100.03674647 412.02957963 -100.01825428 404.74577808 C-100.02278539 403.42615749 -100.02731651 402.1065369 -100.03198493 400.7469278 C-100.0441473 397.10820628 -100.04396249 393.46957717 -100.04159617 389.83083999 C-100.04118628 385.89676096 -100.05224371 381.96271088 -100.06171131 378.02864552 C-100.07828597 370.32934444 -100.08381929 362.63007399 -100.08493607 354.93075656 C-100.08588838 348.66731107 -100.09000782 342.40387562 -100.09633732 336.14043331 C-100.1139414 318.35626676 -100.12317769 300.57212429 -100.12167637 282.78794896 C-100.12159646 281.83028272 -100.12151655 280.87261649 -100.12143421 279.88593006 C-100.12135245 278.92708517 -100.12127069 277.96824027 -100.12118645 276.98033947 C-100.12037417 261.45335502 -100.13949951 245.92646771 -100.16771095 230.39951133 C-100.19649426 214.43090052 -100.21024819 198.462337 -100.20852339 182.49369961 C-100.20786129 173.53891079 -100.2132743 164.58422378 -100.23487949 155.62945843 C-100.25316331 148.00279387 -100.25738002 140.37627724 -100.24386065 132.74960016 C-100.23736661 128.86488488 -100.23708307 124.9804528 -100.25456715 121.09576511 C-100.40382528 85.71339545 -92.12045914 56.55002035 -67.50082874 30.44672108 C-49.92039331 13.64694441 -24.81884383 0.04563416 0 0 Z M-0.75082874 94.13422108 C-1.43532093 94.72590076 -2.11981312 95.31758045 -2.82504749 95.92718983 C-14.90637044 107.05909643 -23.62184686 124.04334058 -24.9385736 140.47747421 C-25.01201149 142.98211354 -25.02714729 145.47996045 -25.01825428 147.98566151 C-25.02278539 148.93690796 -25.02731651 149.88815442 -25.03198493 150.86822653 C-25.04457718 154.03441567 -25.04301188 157.20043165 -25.04135609 160.36664295 C-25.04734472 162.6457793 -25.05415104 164.92491362 -25.06171131 167.2040453 C-25.07934829 173.3821536 -25.08406584 179.56020647 -25.08534288 185.73833752 C-25.0867668 189.60448116 -25.09104105 193.47061082 -25.09633732 197.33675098 C-25.11387919 210.14645446 -25.1231785 222.95611335 -25.12167637 235.76582712 C-25.12159646 236.45522916 -25.12151655 237.14463119 -25.12143421 237.8549242 C-25.12135245 238.54517927 -25.12127069 239.23543433 -25.12118645 239.94660622 C-25.12037479 251.11523179 -25.13948523 262.2837221 -25.16771095 273.4523086 C-25.19653774 284.95056662 -25.20988072 296.44874141 -25.20852339 307.94703817 C-25.20801535 314.39010426 -25.21361065 320.83301733 -25.23487949 327.27605152 C-25.25436181 333.34349418 -25.25431824 339.41063949 -25.23984623 345.47809315 C-25.23776912 347.69306852 -25.24239274 349.90806298 -25.25456715 352.12300587 C-25.38754349 378.0129608 -20.13482942 397.77973427 -2.06332874 417.32172108 C11.5164168 430.25481207 29.43105336 437.46790695 48.10061169 437.40164661 C49.05185814 437.40617773 50.0031046 437.41070884 50.98317671 437.41537726 C54.14936585 437.42796951 57.31538183 437.42640421 60.48159313 437.42474842 C62.76072948 437.43073706 65.0398638 437.43754338 67.31899548 437.44510365 C73.49710378 437.46274062 79.67515665 437.46745817 85.8532877 437.46873522 C89.71943134 437.47015913 93.585561 437.47443339 97.45170116 437.47972965 C110.26140464 437.49727153 123.07106353 437.50657083 135.8807773 437.5050687 C136.57017934 437.50498879 137.25958137 437.50490888 137.96987438 437.50482655 C138.66012945 437.50474478 139.35038451 437.50466302 140.0615564 437.50457878 C151.23018197 437.50376712 162.39867228 437.52287757 173.56725878 437.55110328 C185.0655168 437.57993008 196.56369159 437.59327305 208.06198835 437.59191573 C214.50505444 437.59140768 220.94796751 437.59700299 227.3910017 437.61827183 C233.45844436 437.63775414 239.52558967 437.63771058 245.59304333 437.62323856 C247.8080187 437.62116145 250.02301316 437.62578507 252.23795605 437.63795948 C277.19922672 437.76616591 297.57339747 433.0956688 316.37417126 415.44672108 C334.58326828 396.34025582 337.71066341 374.60987666 337.65322399 349.30243397 C337.65893564 347.01931393 337.66590296 344.73619674 337.67402172 342.45308399 C337.69187941 336.28777165 337.69079878 330.1226022 337.68507934 323.95727181 C337.68197705 318.79594613 337.6880914 313.63464749 337.69411808 308.47332567 C337.70893686 295.59610487 337.70537037 282.71897304 337.69325478 269.84175383 C337.68332383 258.69148884 337.69626747 247.54138983 337.72018897 236.39115042 C337.74464498 224.90403589 337.75377348 213.41701731 337.74753624 201.92987531 C337.74417611 195.49589946 337.74651907 189.06206071 337.76378727 182.62810421 C337.77932319 176.57618249 337.77522715 170.5245763 337.75648212 164.47266674 C337.75281477 162.26168977 337.75585009 160.05068907 337.76636791 157.83973408 C337.86548759 135.26711568 333.85610424 116.46135709 318.24917126 99.13422108 C317.71936657 98.52320545 317.18956188 97.91218983 316.64370251 97.28265858 C303.96580225 83.57174423 285.83666601 75.6374534 267.28593159 74.85437679 C261.33010874 74.70038398 255.37473083 74.71664716 249.41738415 74.73016834 C247.13426411 74.72445669 244.85114692 74.71748938 242.56803417 74.70937061 C236.40272183 74.69151293 230.23755238 74.69259355 224.07222199 74.698313 C218.91089631 74.70141528 213.74959767 74.69530093 208.58827585 74.68927425 C195.71105505 74.67445548 182.83392322 74.67802197 169.95670401 74.69013756 C158.80643902 74.70006851 147.65634001 74.68712487 136.5061006 74.66320337 C125.01898607 74.63874735 113.53196749 74.62961885 102.04482549 74.63585609 C95.61084964 74.63921622 89.17701089 74.63687327 82.74305439 74.61960506 C76.69113267 74.60406915 70.63952648 74.60816518 64.58761692 74.62691021 C62.37663995 74.63057757 60.16563925 74.62754224 57.95468426 74.61702442 C35.39310444 74.51795321 16.55892154 78.52209954 -0.75082874 94.13422108 Z " fill="#111110" transform="translate(99.75082874298096,-0.13422107696533203)"/>
<path d="M0 0 C13.38945881 10.48548593 22.21168865 24.06670795 25 41 C25.43822912 46.74077498 25.28691842 52.49873823 25.1875 58.25 C25.1724114 59.78514298 25.15873045 61.32030046 25.14648438 62.85546875 C25.11384278 66.5706202 25.06229647 70.28521333 25 74 C25.65081543 73.97534668 26.30163086 73.95069336 26.97216797 73.92529297 C37.88054535 73.68565906 46.91979558 77.64544501 55 85 C62.29534403 92.90328936 65.29656835 101.4448406 65.30639648 112.1315918 C65.31472 112.91313126 65.32304352 113.69467072 65.33161926 114.49989319 C65.35557988 117.06638679 65.36447527 119.63262539 65.37109375 122.19921875 C65.38007241 123.99892751 65.38919446 125.79863555 65.39845276 127.5983429 C65.41490873 131.3666057 65.42263637 135.13478003 65.42553711 138.90307617 C65.43090979 143.7033093 65.46855819 148.50269651 65.51428127 153.30269146 C65.54420517 157.02019696 65.55126402 160.73750278 65.55226326 164.45511818 C65.5564371 166.22316158 65.56875576 167.99120717 65.58978081 169.75913048 C65.74118836 183.59400211 63.94031474 195.49435931 54 206 C44.50005181 214.99774828 33.54330559 216.59818377 20.890625 216.51757812 C19.50784574 216.5230116 18.12507228 216.53014109 16.74230957 216.53881836 C13.01905362 216.55690945 9.29624563 216.55004383 5.57298279 216.53730202 C1.6570423 216.5270999 -2.25886252 216.53658755 -6.17480469 216.54284668 C-12.74811616 216.55010227 -19.32124724 216.54059055 -25.89453125 216.52148438 C-33.46946547 216.49971955 -41.04396888 216.50677241 -48.61889267 216.52879 C-55.14920587 216.54700387 -61.67939019 216.54947322 -68.20972061 216.53903532 C-72.09834086 216.53283312 -75.98675932 216.53187362 -79.87536621 216.54518127 C-83.53312618 216.55682695 -87.19033647 216.54855748 -90.84803772 216.52560425 C-92.81270616 216.5178843 -94.77742169 216.52959822 -96.74206543 216.54211426 C-107.97243972 216.43602793 -117.70527486 213.87295945 -126 206 C-136.92808578 194.53446738 -137.61130723 182.38577441 -137.53125 167.375 C-137.53395077 165.57861115 -137.53783802 163.78222374 -137.54284668 161.98583984 C-137.54871427 158.23716187 -137.54026786 154.48886744 -137.52148438 150.74023438 C-137.49869639 145.96248839 -137.51183428 141.18564155 -137.53577423 136.40792847 C-137.55030676 132.70330164 -137.54559227 128.99888401 -137.53526306 125.29425049 C-137.53261632 123.53379202 -137.53579231 121.77331384 -137.54518127 120.01287842 C-137.60328362 106.06062371 -136.30887006 94.42691056 -126 84 C-118.70891766 77.79533722 -111.41112022 73.7971945 -101.71875 73.93359375 C-100.83123047 73.94318115 -99.94371094 73.95276855 -99.02929688 73.96264648 C-98.35962891 73.97497314 -97.68996094 73.9872998 -97 74 C-97.02094727 73.07364746 -97.04189453 72.14729492 -97.06347656 71.19287109 C-97.1325217 67.68511588 -97.18221392 64.17810448 -97.21972656 60.66992188 C-97.23957976 59.16492161 -97.2666719 57.65999565 -97.30175781 56.15527344 C-97.69846537 38.6768051 -93.99358701 22.61368554 -82.125 9.125 C-59.99526443 -13.82801442 -26.60664591 -18.17641035 0 0 Z " fill="#FBB400" transform="translate(292,153)"/>
<path d="M0 0 C0.96431183 -0.00367669 1.92862365 -0.00735338 2.92215705 -0.01114148 C6.15056375 -0.02214635 9.37893822 -0.0260168 12.60736084 -0.02983093 C14.92383933 -0.03609822 17.24031682 -0.04274525 19.55679321 -0.04974365 C27.16446231 -0.07076279 34.77213155 -0.08114713 42.37982178 -0.09111023 C45.00384278 -0.09515921 47.62786367 -0.09927618 50.25188446 -0.10346031 C61.17405529 -0.12032879 72.09622406 -0.13496098 83.01840591 -0.14220905 C85.84981538 -0.14411865 88.68122484 -0.14603903 91.51263428 -0.147995 C92.216286 -0.14847874 92.91993771 -0.14896248 93.64491221 -0.14946087 C105.01997427 -0.1577447 116.39493061 -0.18305425 127.7699466 -0.21557567 C139.474894 -0.24876461 151.1797879 -0.26666861 162.88478255 -0.26985329 C169.44586488 -0.27219593 176.00678018 -0.28105326 182.56781769 -0.30631447 C188.75011767 -0.32973231 194.93214227 -0.33377352 201.11447525 -0.32355309 C203.37095943 -0.32306087 205.62745779 -0.32928748 207.88389969 -0.34310913 C224.48549385 -0.4390256 240.56327539 0.6234483 255.80169678 7.89717102 C256.54484131 8.24078674 257.28798584 8.58440247 258.0536499 8.93843079 C264.39245161 11.96646367 269.98419737 15.61800219 275.36419678 20.14717102 C276.63650146 21.21258118 276.63650146 21.21258118 277.93450928 22.29951477 C288.42648529 31.42785476 297.52233637 41.49769986 303.42669678 54.14717102 C303.94212036 55.24714417 303.94212036 55.24714417 304.46795654 56.36933899 C310.04616436 68.67448164 312.51417838 81.33015906 312.5113678 94.8205719 C312.51504449 95.77686548 312.51872117 96.73315906 312.52250928 97.71843123 C312.53349701 100.91375887 312.53738166 104.10905393 312.54119873 107.30439758 C312.54746729 109.59969688 312.55411444 111.89499517 312.56111145 114.19029236 C312.5821148 121.72278644 312.59251323 129.25528064 312.60247803 136.78779602 C312.60652756 139.38734192 312.61064454 141.98688772 312.61482811 144.58643341 C312.63169402 155.40741841 312.64632632 166.22840051 312.65357685 177.04939651 C312.65548639 179.85347241 312.65740677 182.65754829 312.65936279 185.46162415 C312.65984653 186.15846682 312.66033027 186.8553095 312.66082867 187.57326862 C312.66911211 198.83766109 312.69442205 210.10194679 312.72694347 221.36629274 C312.76014434 232.96166736 312.77770564 244.55698248 312.78122109 256.15240455 C312.78356246 262.65034739 312.79240314 269.14812146 312.81768227 275.64601898 C312.84111873 281.76924023 312.845134 287.89218345 312.83492088 294.01543808 C312.83442912 296.24892736 312.84064202 298.48243105 312.85447693 300.71587753 C313.0293386 330.64724431 306.21923671 355.367604 285.08685303 377.39326477 C269.98378364 392.66968359 252.58029148 401.98058972 231.36419678 405.14717102 C230.33711011 405.31960925 229.31002344 405.49204748 228.25181293 405.66971111 C223.72523554 406.22564543 219.31500026 406.2952987 214.75999451 406.29434204 C213.81116247 406.29801873 212.86233042 406.30169542 211.8847459 406.30548352 C208.71472331 406.31647027 205.54473356 406.32035572 202.37469482 406.32417297 C200.09747719 406.33044157 197.82026056 406.33708872 195.54304504 406.34408569 C188.07067573 406.36508724 180.59830631 406.37548676 173.12591553 406.38545227 C170.54739687 406.38950176 167.96887832 406.39361874 165.39035988 406.39780235 C154.65772964 406.41466745 143.92510307 406.42930017 133.19246197 406.43655109 C130.41140936 406.43846064 127.63035677 406.44038103 124.8493042 406.44233704 C123.81261856 406.44306265 123.81261856 406.44306265 122.75498978 406.44380292 C111.58045273 406.45208821 100.40602325 406.4774017 89.23153307 406.50991771 C77.72995133 406.5431095 66.22844021 406.56067897 54.72680885 406.56419533 C48.2808763 406.56653748 41.83511382 406.57538854 35.38922691 406.60065651 C29.31607542 406.62407876 23.24320425 406.62811384 17.17001915 406.61789513 C14.95384789 406.61740303 12.73766216 406.62362587 10.52153397 406.63745117 C-18.97890006 406.81103427 -43.76098388 399.61567056 -65.23980713 378.53926086 C-85.86202 357.97475268 -94.11480026 333.69276331 -94.17791748 305.00376892 C-94.17014405 302.8497452 -94.16195162 300.69572296 -94.15338135 298.54170227 C-94.15881435 296.22345035 -94.16594356 293.90520189 -94.17462158 291.58695984 C-94.19271766 285.34312704 -94.18584442 279.09956127 -94.17310524 272.85572433 C-94.16290602 266.2898619 -94.17239 259.72402078 -94.1786499 253.15815735 C-94.18716554 241.43264331 -94.17401858 229.70724059 -94.15361255 217.98174584 C-94.13574584 207.38806501 -94.13885128 196.79455962 -94.1572876 186.20088196 C-94.17877815 173.84673659 -94.18661702 161.49270276 -94.17483854 149.13854122 C-94.16863512 142.61790703 -94.16768059 136.0973932 -94.1809845 129.57676697 C-94.19262627 123.44351431 -94.18436633 117.31058959 -94.16140747 111.17737198 C-94.15616459 108.94024319 -94.15755724 106.70308631 -94.16645813 104.46596909 C-94.27312953 74.90723154 -87.1687878 50.09355629 -66.04547119 28.55195618 C-58.04339268 20.57759529 -49.88735997 13.8703193 -39.63580322 9.08467102 C-38.90321289 8.7410553 -38.17062256 8.39743958 -37.41583252 8.04341125 C-25.46526045 2.62185692 -13.10394941 -0.00269542 0 0 Z M-47.63580322 41.14717102 C-48.32029541 41.73885071 -49.0047876 42.3305304 -49.71002197 42.94013977 C-61.79134492 54.07204638 -70.50682134 71.05629053 -71.82354808 87.49042416 C-71.89698597 89.99506348 -71.91212177 92.4929104 -71.90322876 94.99861145 C-71.90775987 95.94985791 -71.91229099 96.90110436 -71.9169594 97.88117647 C-71.92955166 101.04736561 -71.92798636 104.21338159 -71.92633057 107.3795929 C-71.9323192 109.65872924 -71.93912552 111.93786356 -71.94668579 114.21699524 C-71.96432277 120.39510355 -71.96904032 126.57315641 -71.97031736 132.75128746 C-71.97174128 136.6174311 -71.97601553 140.48356076 -71.9813118 144.34970093 C-71.99885367 157.15940441 -72.00815298 169.9690633 -72.00665085 182.77877706 C-72.00657094 183.4681791 -72.00649103 184.15758114 -72.00640869 184.86787415 C-72.00632693 185.55812921 -72.00624517 186.24838428 -72.00616093 186.95955616 C-72.00534927 198.12818173 -72.02445971 209.29667204 -72.05268542 220.46525854 C-72.08151222 231.96351656 -72.0948552 243.46169135 -72.09349787 254.95998812 C-72.09298983 261.4030542 -72.09858513 267.84596727 -72.11985397 274.28900146 C-72.13933629 280.35644413 -72.13929272 286.42358943 -72.12482071 292.49104309 C-72.1227436 294.70601846 -72.12736722 296.92101293 -72.13954163 299.13595581 C-72.27251797 325.02591074 -67.0198039 344.79268421 -48.94830322 364.33467102 C-35.36855768 377.26776201 -17.45392112 384.4808569 1.21563721 384.41459656 C2.16688366 384.41912767 3.11813012 384.42365878 4.09820223 384.4283272 C7.26439137 384.44091946 10.43040735 384.43935416 13.59661865 384.43769836 C15.875755 384.443687 18.15488932 384.45049332 20.434021 384.45805359 C26.6121293 384.47569057 32.79018217 384.48040812 38.96831322 384.48168516 C42.83445686 384.48310908 46.70058652 384.48738333 50.56672668 384.4926796 C63.37643017 384.51022147 76.18608905 384.51952078 88.99580282 384.51801865 C89.68520486 384.51793874 90.37460689 384.51785882 91.0848999 384.51777649 C91.77515497 384.51769473 92.46541003 384.51761297 93.17658192 384.51752873 C104.34520749 384.51671707 115.5136978 384.53582751 126.6822843 384.56405322 C138.18054232 384.59288002 149.67871711 384.606223 161.17701387 384.60486567 C167.62007996 384.60435763 174.06299303 384.60995293 180.50602722 384.63122177 C186.57346988 384.65070409 192.64061519 384.65066052 198.70806885 384.63618851 C200.92304422 384.63411139 203.13803868 384.63873502 205.35298157 384.65090942 C230.31425224 384.77911585 250.68842299 380.10861875 269.48919678 362.45967102 C287.6982938 343.35320576 290.82568894 321.6228266 290.76824951 296.31538391 C290.77396116 294.03226387 290.78092848 291.74914668 290.78904724 289.46603394 C290.80690493 283.30072159 290.8058243 277.13555214 290.80010486 270.97022176 C290.79700258 265.80889608 290.80311692 260.64759743 290.8091436 255.48627561 C290.82396238 242.60905481 290.82039589 229.73192299 290.8082803 216.85470378 C290.79834935 205.70443878 290.81129299 194.55433977 290.83521449 183.40410037 C290.85967051 171.91698583 290.868799 160.42996726 290.86256176 148.94282526 C290.85920163 142.5088494 290.86154459 136.07501066 290.87881279 129.64105415 C290.89434871 123.58913243 290.89025267 117.53752624 290.87150764 111.48561668 C290.86784029 109.27463972 290.87087561 107.06363901 290.88139343 104.85268402 C290.98051312 82.28006562 286.97112976 63.47430704 271.36419678 46.14717102 C270.83439209 45.5361554 270.3045874 44.92513977 269.75872803 44.29560852 C257.08082777 30.58469417 238.95169153 22.65040334 220.40095711 21.86732674 C214.44513426 21.71333393 208.48975635 21.7295971 202.53240967 21.74311829 C200.24928963 21.73740664 197.96617244 21.73043932 195.68305969 21.72232056 C189.51774735 21.70446287 183.3525779 21.7055435 177.18724751 21.71126294 C172.02592183 21.71436522 166.86462319 21.70825087 161.70330137 21.7022242 C148.82608057 21.68740542 135.94894874 21.69097191 123.07172953 21.7030875 C111.92146454 21.71301845 100.77136553 21.70007481 89.62112612 21.67615331 C78.13401159 21.65169729 66.64699302 21.6425688 55.15985101 21.64880604 C48.72587516 21.65216617 42.29203641 21.64982321 35.85807991 21.63255501 C29.80615819 21.61701909 23.754552 21.62111512 17.70264244 21.63986015 C15.49166547 21.64352751 13.28066477 21.64049219 11.06970978 21.62997437 C-11.49187004 21.53090315 -30.32605294 25.53504948 -47.63580322 41.14717102 Z " fill="#FBB400" transform="translate(146.63580322265625,52.85282897949219)"/>
<path d="M0 0 C1.34912558 -0.00706371 2.69824324 -0.01581064 4.04734802 -0.02610779 C7.70036927 -0.04856193 11.35295643 -0.04567152 15.00602031 -0.03678632 C18.06015972 -0.03166685 21.11421825 -0.03897678 24.16834933 -0.04625839 C31.37565152 -0.06324491 38.58274192 -0.05970443 45.79003906 -0.04296875 C53.21562504 -0.02604871 60.64062311 -0.04188268 68.06614488 -0.07419163 C74.45107993 -0.10091634 80.83583228 -0.10815581 87.22081763 -0.09967655 C91.03008007 -0.09475562 94.83898888 -0.09691718 98.64820671 -0.11746407 C102.23129059 -0.13586692 105.8135312 -0.12980787 109.39657021 -0.10526466 C111.33105908 -0.09789796 113.26559315 -0.11507676 115.20001221 -0.13308716 C122.40647278 -0.05461725 126.51194151 0.42881118 131.76196289 5.53344727 C135.01135054 9.50573391 135.20263843 13.1902356 135.18188477 18.15014648 C135.19035431 18.90041107 135.19882385 19.65067566 135.20755005 20.42367554 C135.23088249 22.89533606 135.23194306 25.3663726 135.23071289 27.83813477 C135.2378173 29.56300097 135.24551671 31.28786481 135.25378418 33.01272583 C135.26722074 36.62565684 135.26880174 40.23836938 135.26293945 43.85131836 C135.25704731 48.47055656 135.28761796 53.08874228 135.32805634 57.70777702 C135.35396743 61.26984254 135.35680763 64.83165588 135.35316467 68.39380264 C135.35485307 70.09618904 135.36446859 71.79858744 135.38230896 73.5008812 C135.40456539 75.88727985 135.39476515 78.27156458 135.37719727 80.65795898 C135.39046051 81.35429443 135.40372375 82.05062988 135.41738892 82.76806641 C135.3254102 88.17332396 133.53241718 91.79454017 129.76196289 95.53344727 C126.06107918 98.21672339 123.50614234 98.9101434 118.96205139 98.92112732 C117.22301796 98.93598427 117.22301796 98.93598427 115.44885254 98.95114136 C114.18585327 98.94663971 112.922854 98.94213806 111.62158203 98.9375 C110.27098527 98.94320554 108.92039332 98.95017052 107.56980896 98.95829773 C103.90859224 98.97622444 100.24761526 98.97506172 96.58636785 98.96935534 C93.52722592 98.96626269 90.46812999 98.97235681 87.40899462 98.97839409 C80.19075559 98.99243617 72.97263493 98.99088078 65.75439453 98.97949219 C58.3135539 98.96801164 50.87307373 98.98208606 43.4322806 99.00888866 C37.03805795 99.03105702 30.64394835 99.03768049 24.24969 99.03181225 C20.43322361 99.0284441 16.61698826 99.03084802 12.80055428 99.04806328 C9.21103187 99.06354862 5.62204273 99.05955995 2.03254128 99.04075813 C0.09188632 99.03532465 -1.84879267 99.04957439 -3.78939819 99.06445312 C-14.65312096 98.97252609 -14.65312096 98.97252609 -19.23803711 94.53344727 C-23.01174169 90.07799428 -23.82155207 86.47440599 -23.75561523 80.78735352 C-23.76262451 80.03533661 -23.76963379 79.2833197 -23.77685547 78.5085144 C-23.79437594 76.03727648 -23.78283474 73.56719563 -23.76928711 71.09594727 C-23.77198375 69.37011497 -23.77586761 67.64428415 -23.78088379 65.91845703 C-23.78677075 62.30722542 -23.77824197 58.69639046 -23.75952148 55.08520508 C-23.73673216 50.46487351 -23.74985958 45.84547144 -23.77381134 41.22517395 C-23.78829116 37.66313724 -23.78365337 34.10131956 -23.77330017 30.53927612 C-23.77063891 28.83608896 -23.77388147 27.13288167 -23.78321838 25.42971802 C-23.7934204 23.04579276 -23.77783391 20.6633559 -23.75561523 18.27954102 C-23.76371216 17.58118134 -23.77180908 16.88282166 -23.78015137 16.16329956 C-23.67119127 9.82736715 -21.2545861 6.48260395 -16.81541443 2.19178772 C-11.30174579 -0.36414612 -6.00660205 -0.03116341 0 0 Z " fill="#121110" transform="translate(200.238037109375,248.466552734375)"/>
<path d="M0 0 C7.34395425 5.83625503 10.76284782 12.97176086 14.01953125 21.65625 C14.01953125 32.54625 14.01953125 43.43625 14.01953125 54.65625 C-11.72046875 54.65625 -37.46046875 54.65625 -63.98046875 54.65625 C-63.98046875 13.94490979 -63.98046875 13.94490979 -51.98046875 1.65625 C-36.167157 -11.69721325 -17.07370632 -11.58452658 0 0 Z " fill="#131210" transform="translate(280.98046875,172.34375)"/>
</svg>
